<?xml version="1.0" standalone="no"?>
<!DOCTYPE svg PUBLIC "-//W3C//DTD SVG 1.1//EN" "http://www.w3.org/Graphics/SVG/1.1/DTD/svg11.dtd" >
<svg xmlns="http://www.w3.org/2000/svg" xmlns:xlink="http://www.w3.org/1999/xlink" version="1.1">
<metadata>
Created by FontForge 20170731 at Fri Dec  2 08:55:26 2016
 By Aleksey,,,
Copyright (c) 2016 by Cloutierfontes. All rights reserved.
</metadata>
<defs>
<font id="CFShowbizzPERSONAL-Regular" horiz-adv-x="399" >
  <font-face 
    font-family="CF Showbizz PERSONAL"
    font-weight="400"
    font-stretch="normal"
    units-per-em="1000"
    panose-1="0 0 0 0 0 0 0 0 0 0"
    ascent="836"
    descent="-164"
    x-height="888"
    cap-height="892"
    bbox="19 -183 608 899"
    underline-thickness="50"
    underline-position="-150"
    unicode-range="U+000D-2019"
  />
<missing-glyph horiz-adv-x="500" 
d="M63 0v836h375v-836h-375v0zM125 63h250v711h-250v-711v0z" />
    <glyph glyph-name=".notdef" horiz-adv-x="500" 
d="M63 0v836h375v-836h-375v0zM125 63h250v711h-250v-711v0z" />
    <glyph glyph-name=".null" horiz-adv-x="0" 
 />
    <glyph glyph-name="nonmarkingreturn" unicode="&#xd;" horiz-adv-x="0" 
 />
    <glyph glyph-name="NULL" horiz-adv-x="0" 
 />
    <glyph glyph-name="NULL" horiz-adv-x="0" 
 />
    <glyph glyph-name="space" unicode=" " horiz-adv-x="191" 
 />
    <glyph glyph-name="comma" unicode="," horiz-adv-x="172" 
d="M41 11h124v-118h-2q0 -25 -17.5 -42t-42.5 -17t-42.5 17t-17.5 42h-2v118z" />
    <glyph glyph-name="hyphen" unicode="-" horiz-adv-x="312" 
d="M62 367v127h245v-127h-245z" />
    <glyph glyph-name="period" unicode="." horiz-adv-x="162" 
d="M96 -111q-25 0 -42 17.5t-17 42.5t17 42t42 17t42.5 -17t17.5 -42t-17.5 -42.5t-42.5 -17.5z" />
    <glyph glyph-name="slash" unicode="/" horiz-adv-x="191" 
 />
    <glyph glyph-name="zero" unicode="0" 
d="M303 -111h-206q-26 0 -43.5 20t-17.5 48v869q0 29 17.5 48.5t43.5 19.5h206q25 0 42.5 -19.5t17.5 -48.5v-869q0 -28 -17.5 -48t-42.5 -20zM242 758h-84v-733h84v733z" />
    <glyph glyph-name="one" unicode="1" 
d="M194 -107v865h-101v136h157q23 0 39.5 -19.5t16.5 -48.5v-933h-112z" />
    <glyph glyph-name="two" unicode="2" 
d="M303 -108h-206q-26 0 -43.5 19.5t-17.5 48.5v607q0 29 17.5 49t43.5 20h145v125h-84v-73h-122v141q0 29 17.5 48.5t43.5 19.5h206q25 0 42.5 -19.5t17.5 -48.5v-262q0 -28 -17.5 -48t-42.5 -20h-145v-471h84v417h121v-485q0 -29 -17.5 -48.5t-42.5 -19.5z" />
    <glyph glyph-name="three" unicode="3" 
d="M303 -109h-206q-26 0 -43.5 20t-17.5 49v308h122v-240h84v471h-139v136h139v125h-84v-73h-122v142q0 28 17.5 48t43.5 20h206q25 0 42.5 -20t17.5 -48v-869q0 -29 -17.5 -49t-42.5 -20z" />
    <glyph glyph-name="four" unicode="4" 
d="M242 -104v606h-145q-26 0 -43.5 19.5t-17.5 48.5v329h122v-261h84v260h121v-1002h-121z" />
    <glyph glyph-name="five" unicode="5" 
d="M303 -109h-206q-26 0 -43.5 19.5t-17.5 48.5v485h122v-417h84v471h-145q-26 0 -43.5 20t-17.5 49v261q0 29 17.5 48.5t43.5 19.5h206q25 0 42.5 -19.5t17.5 -48.5v-141h-121v73h-84v-125h145q25 0 42.5 -20t17.5 -48v-608q0 -29 -17.5 -48.5t-42.5 -19.5z" />
    <glyph glyph-name="six" unicode="6" 
d="M303 -110h-206q-26 0 -43.5 19.5t-17.5 48.5v869q0 29 17.5 48.5t43.5 19.5h206q25 0 42.5 -19.5t17.5 -48.5v-141h-121v73h-84v-125l144 1q26 0 43 -20q18 -20 18 -48v-609q0 -29 -17.5 -48.5t-42.5 -19.5zM242 498h-84v-472h84v472z" />
    <glyph glyph-name="seven" unicode="7" 
d="M242 -107v865h-84v-221h-122v289q0 28 17.5 48t43.5 20h206q25 0 42.5 -20t17.5 -48v-933h-121z" />
    <glyph glyph-name="eight" unicode="8" 
d="M303 -110h-206q-26 0 -43.5 19.5t-17.5 48.5v869q0 28 17.5 48t43.5 20h206q25 0 42.5 -20t17.5 -48v-869q0 -29 -17.5 -48.5t-42.5 -19.5zM242 759h-84v-125h84v125zM242 498h-84v-472h84v472z" />
    <glyph glyph-name="nine" unicode="9" 
d="M303 -109l-206 -2q-25 0 -43 20q-18 21 -18 49v317h122v-249l84 1v472l-145 -1q-26 0 -43 20q-18 20 -18 48v261q0 28 17.5 48t43.5 20l205 1q26 0 43 -20q9 -9 13.5 -21.5t4.5 -26.5v-869q0 -29 -17.5 -48.5t-42.5 -19.5zM242 759h-84v-125l84 1v124z" />
    <glyph glyph-name="question" unicode="?" horiz-adv-x="1000" 
 />
    <glyph glyph-name="A" unicode="A" horiz-adv-x="369" 
d="M241 -104v600h-84v-600h-120v925q0 28 17.5 47.5t42.5 19.5h204q25 0 42.5 -19.5t17.5 -47.5v-925h-120zM241 753h-84v-122h84v122z" />
    <glyph glyph-name="B" unicode="B" horiz-adv-x="388" 
d="M324 -102h-203q-26 0 -43.5 19.5t-17.5 48.5v860q0 28 17.5 47.5t43.5 19.5h203q25 0 42.5 -19.5t17.5 -47.5v-179q0 -20 -9 -36l-24 -42l24 -43q9 -17 9 -36v-524q0 -29 -17.5 -48.5t-42.5 -19.5zM264 758h-83v-122h66l17 31v91zM264 471l-17 30h-66v-468h83v438z" />
    <glyph glyph-name="C" unicode="C" horiz-adv-x="382" 
d="M327 -105h-203q-26 0 -43.5 19.5t-17.5 47.5v860q0 29 17.5 48.5t43.5 19.5h203q25 0 42.5 -19.5t17.5 -48.5v-290h-120v223h-83v-725h83v245h120v-313q0 -28 -17.5 -47.5t-42.5 -19.5z" />
    <glyph glyph-name="D" unicode="D" horiz-adv-x="421" 
d="M388 -54q-5 -23 -21.5 -37.5t-37.5 -14.5h-197q-26 0 -43.5 19.5t-17.5 47.5v861q0 28 17.5 47.5t43.5 19.5h197q21 0 37.5 -14.5t21.5 -37.5q1 -3 8.5 -41.5t16 -100t15.5 -140.5t7 -163q0 -85 -7 -164t-15.5 -140.5t-16 -100t-8.5 -41.5zM279 754h-86v-725h86
q5 28 11 67.5t11 87t8.5 100.5t3.5 108t-3.5 108t-8.5 100t-11 86.5t-11 67.5z" />
    <glyph glyph-name="E" unicode="E" horiz-adv-x="375" 
d="M328 -103h-204q-25 0 -42.5 19.5t-17.5 47.5v861q0 28 17.5 47.5t42.5 19.5h204q25 0 42.5 -19.5t17.5 -47.5v-141h-120v73h-84v-122h136v-135h-136v-468h84v91h120v-159q0 -28 -17.5 -47.5t-42.5 -19.5z" />
    <glyph glyph-name="F" unicode="F" horiz-adv-x="357" 
d="M260 682v73h-83v-122h135v-135h-135v-601h-120v925q0 28 17.5 48t42.5 20h204q25 0 42.5 -20t17.5 -48v-140h-121z" />
    <glyph glyph-name="G" unicode="G" horiz-adv-x="395" 
d="M374 -86q-17 -19 -43 -19h-203q-25 0 -42.5 19.5t-17.5 47.5v860q0 28 17.5 48t42.5 20h203q26 0 43.5 -20t17.5 -48v-146h-121v79h-83v-726h83v469h-44v135h164v-68v68q0 -18 0.5 -56.5t0.5 -89v-109.5v-117v-299q0 -27 -18 -48z" />
    <glyph glyph-name="H" unicode="H" horiz-adv-x="390" 
d="M265 -104v601h-83v-601h-121v993h121v-257h83v257h120v-993h-120z" />
    <glyph glyph-name="I" unicode="I" horiz-adv-x="192" 
d="M67 -100v992h120v-992h-120z" />
    <glyph glyph-name="J" unicode="J" horiz-adv-x="396" 
d="M331 -106h-204q-25 0 -42.5 19.5t-17.5 47.5v312h121v-244h83v861h120v-929q0 -28 -17.5 -47.5t-42.5 -19.5z" />
    <glyph glyph-name="K" unicode="K" horiz-adv-x="393" 
d="M269 -103v570l-18 30h-66v-600h-120v994h120v-259h66l18 31v228h120v-247q0 -21 -9 -37l-25 -42l25 -43q9 -15 9 -36v-589h-120z" />
    <glyph glyph-name="L" unicode="L" horiz-adv-x="362" 
d="M328 -105h-204q-25 0 -42.5 19.5t-17.5 47.5v929h121v-861h135l68 -1v-67q0 -28 -17.5 -47.5t-42.5 -19.5z" />
    <glyph glyph-name="M" unicode="M" horiz-adv-x="431" 
d="M304 -102v643l-7 -15q-8 -17 -23 -27t-32 -10t-32 10t-23 27l-7 15v-643h-123v923q0 23 13.5 41.5t33.5 24.5q21 5 40.5 -4.5t28.5 -30.5l69 -147l69 147q10 21 29 30.5t40 4.5q20 -6 33.5 -24.5t13.5 -41.5v-923h-123z" />
    <glyph glyph-name="N" unicode="N" horiz-adv-x="400" 
d="M343 -105q-2 0 -4 -0.5t-4 -0.5q-20 0 -36.5 14t-21.5 36l-85 361v-408h-120v925q0 26 14.5 44.5t37.5 22.5q23 3 41.5 -11t24.5 -39l85 -360v410h121v-927q0 -26 -15 -45t-38 -22z" />
    <glyph glyph-name="O" unicode="O" horiz-adv-x="391" 
d="M326 -105h-203q-26 0 -43.5 19.5t-17.5 47.5v860q0 29 17.5 48.5t43.5 19.5h203q25 0 42.5 -19.5t17.5 -48.5v-860q0 -28 -17.5 -47.5t-42.5 -19.5zM266 755h-83v-725h83v725z" />
    <glyph glyph-name="P" unicode="P" horiz-adv-x="364" 
d="M324 497h-143v-602h-121v670v146v111q0 28 17.5 47.5t42.5 19.5h204q25 0 42.5 -19.5t17.5 -47.5v-257q0 -28 -17.5 -48t-42.5 -20zM264 754h-83v-43v-79h83v122z" />
    <glyph glyph-name="Q" unicode="Q" horiz-adv-x="406" 
d="M340 -115h-41v-68h-121v68h-41q-25 0 -42.5 19.5t-17.5 48.5v863q0 29 17 48.5t43 19.5h203q26 0 43 -19.5t17 -48.5v-863q0 -29 -17 -48.5t-43 -19.5zM280 76v672h-83v-672h83z" />
    <glyph glyph-name="R" unicode="R" horiz-adv-x="408" 
d="M302 -98l-111 602v-602h-122v670v145v112q0 28 17.5 47.5t43.5 19.5h206q26 0 43.5 -19.5t17.5 -47.5v-257q0 -29 -17.5 -48.5t-43.5 -19.5h-20l111 -602h-125zM275 761h-84v-44v-78h84v122z" />
    <glyph glyph-name="S" unicode="S" horiz-adv-x="389" 
d="M327 -105h-204q-25 0 -42.5 19.5t-17.5 47.5v430h120v-362h83v466h-143q-25 0 -42.5 19.5t-17.5 47.5v259q0 29 17.5 48.5t42.5 19.5h204q25 0 42.5 -19.5t17.5 -48.5v-139h-121v72h-83v-124h144q25 0 42.5 -19.5t17.5 -48.5v-601q0 -28 -17.5 -47.5t-42.5 -19.5z" />
    <glyph glyph-name="T" unicode="T" horiz-adv-x="365" 
d="M284 754v-857h-120v857h-99v135h320v-135h-101z" />
    <glyph glyph-name="U" unicode="U" horiz-adv-x="395" 
d="M330 -110h-203q-26 0 -43 19.5t-17 47.5v931h120v-863h83v863h120v-931q0 -28 -17 -47.5t-43 -19.5z" />
    <glyph glyph-name="V" unicode="V" horiz-adv-x="384" 
d="M283 -54q-3 -26 -20 -42t-40 -16t-40.5 16t-20.5 42l-115 942h122l54 -433l53 433h122z" />
    <glyph glyph-name="W" unicode="W" horiz-adv-x="593" 
d="M495 -50q-3 -25 -21 -42t-43 -17q-24 0 -42.5 16.5t-21.5 42.5l-46 363l-47 -363q-3 -26 -21 -42.5t-43 -16.5q-24 0 -42.5 17t-21.5 42l-112 941h130l48 -404l45 346q3 26 21.5 42.5t42.5 16.5t42 -16.5t22 -42.5l44 -346l48 404h130z" />
    <glyph glyph-name="X" unicode="X" horiz-adv-x="375" 
d="M268 387l119 -494h-126l-57 234l-56 -234h-127l120 494l-122 503h126l59 -243l59 243h127z" />
    <glyph glyph-name="Y" unicode="Y" horiz-adv-x="378" 
d="M399 891l-125 -507h1v-68.5t-0.5 -78t-0.5 -81.5v-79v-183h-122v489l-124 508h126l59 -243l59 243h127z" />
    <glyph glyph-name="Z" unicode="Z" horiz-adv-x="349" 
d="M104 -105q-29 0 -48 27q-18 26 -10 58l183 776h-183v135h261q31 0 48 -27q8 -12 11 -27.5t0 -30.5l-184 -776h186v-135h-264z" />
    <glyph glyph-name="a" unicode="a" horiz-adv-x="369" 
d="M241 -104v600h-84v-600h-120v925q0 28 17.5 47.5t42.5 19.5h204q25 0 42.5 -19.5t17.5 -47.5v-925h-120zM241 753h-84v-122h84v122z" />
    <glyph glyph-name="b" unicode="b" horiz-adv-x="388" 
d="M324 -102h-203q-26 0 -43.5 19.5t-17.5 48.5v860q0 28 17.5 47.5t43.5 19.5h203q25 0 42.5 -19.5t17.5 -47.5v-179q0 -20 -9 -36l-24 -42l24 -43q9 -17 9 -36v-524q0 -29 -17.5 -48.5t-42.5 -19.5zM264 758h-83v-122h66l17 31v91zM264 471l-17 30h-66v-468h83v438z" />
    <glyph glyph-name="c" unicode="c" horiz-adv-x="382" 
d="M327 -105h-203q-26 0 -43.5 19.5t-17.5 47.5v860q0 29 17.5 48.5t43.5 19.5h203q25 0 42.5 -19.5t17.5 -48.5v-290h-120v223h-83v-725h83v245h120v-313q0 -28 -17.5 -47.5t-42.5 -19.5z" />
    <glyph glyph-name="d" unicode="d" horiz-adv-x="421" 
d="M388 -54q-5 -23 -21.5 -37.5t-37.5 -14.5h-197q-26 0 -43.5 19.5t-17.5 47.5v861q0 28 17.5 47.5t43.5 19.5h197q21 0 37.5 -14.5t21.5 -37.5q1 -3 8.5 -41.5t16 -100t15.5 -140.5t7 -163q0 -85 -7 -164t-15.5 -140.5t-16 -100t-8.5 -41.5zM279 754h-86v-725h86
q5 28 11 67.5t11 87t8.5 100.5t3.5 108t-3.5 108t-8.5 100t-11 86.5t-11 67.5z" />
    <glyph glyph-name="e" unicode="e" horiz-adv-x="375" 
d="M328 -103h-204q-25 0 -42.5 19.5t-17.5 47.5v861q0 28 17.5 47.5t42.5 19.5h204q25 0 42.5 -19.5t17.5 -47.5v-141h-120v73h-84v-122h136v-135h-136v-468h84v91h120v-159q0 -28 -17.5 -47.5t-42.5 -19.5z" />
    <glyph glyph-name="f" unicode="f" horiz-adv-x="357" 
d="M260 682v73h-83v-122h135v-135h-135v-601h-120v925q0 28 17.5 48t42.5 20h204q25 0 42.5 -20t17.5 -48v-140h-121z" />
    <glyph glyph-name="g" unicode="g" horiz-adv-x="395" 
d="M374 -86q-17 -19 -43 -19h-203q-25 0 -42.5 19.5t-17.5 47.5v860q0 28 17.5 48t42.5 20h203q26 0 43.5 -20t17.5 -48v-146h-121v79h-83v-726h83v469h-44v135h164v-68v68q0 -18 0.5 -56.5t0.5 -89v-109.5v-117v-299q0 -27 -18 -48z" />
    <glyph glyph-name="h" unicode="h" horiz-adv-x="390" 
d="M265 -104v601h-83v-601h-121v993h121v-257h83v257h120v-993h-120z" />
    <glyph glyph-name="i" unicode="i" horiz-adv-x="192" 
d="M67 -100v992h120v-992h-120z" />
    <glyph glyph-name="j" unicode="j" horiz-adv-x="396" 
d="M331 -106h-204q-25 0 -42.5 19.5t-17.5 47.5v312h121v-244h83v861h120v-929q0 -28 -17.5 -47.5t-42.5 -19.5z" />
    <glyph glyph-name="k" unicode="k" horiz-adv-x="393" 
d="M269 -103v570l-18 30h-66v-600h-120v994h120v-259h66l18 31v228h120v-247q0 -21 -9 -37l-25 -42l25 -43q9 -15 9 -36v-589h-120z" />
    <glyph glyph-name="l" unicode="l" horiz-adv-x="362" 
d="M328 -105h-204q-25 0 -42.5 19.5t-17.5 47.5v929h121v-861h135l68 -1v-67q0 -28 -17.5 -47.5t-42.5 -19.5z" />
    <glyph glyph-name="m" unicode="m" horiz-adv-x="431" 
d="M304 -102v643l-7 -15q-8 -17 -23 -27t-32 -10t-32 10t-23 27l-7 15v-643h-123v923q0 23 13.5 41.5t33.5 24.5q21 5 40.5 -4.5t28.5 -30.5l69 -147l69 147q10 21 29 30.5t40 4.5q20 -6 33.5 -24.5t13.5 -41.5v-923h-123z" />
    <glyph glyph-name="n" unicode="n" horiz-adv-x="400" 
d="M343 -105q-2 0 -4 -0.5t-4 -0.5q-20 0 -36.5 14t-21.5 36l-85 361v-408h-120v925q0 26 14.5 44.5t37.5 22.5q23 3 41.5 -11t24.5 -39l85 -360v410h121v-927q0 -26 -15 -45t-38 -22z" />
    <glyph glyph-name="o" unicode="o" horiz-adv-x="391" 
d="M326 -105h-203q-26 0 -43.5 19.5t-17.5 47.5v860q0 29 17.5 48.5t43.5 19.5h203q25 0 42.5 -19.5t17.5 -48.5v-860q0 -28 -17.5 -47.5t-42.5 -19.5zM266 755h-83v-725h83v725z" />
    <glyph glyph-name="p" unicode="p" horiz-adv-x="364" 
d="M324 497h-143v-602h-121v670v146v111q0 28 17.5 47.5t42.5 19.5h204q25 0 42.5 -19.5t17.5 -47.5v-257q0 -28 -17.5 -48t-42.5 -20zM264 754h-83v-43v-79h83v122z" />
    <glyph glyph-name="q" unicode="q" horiz-adv-x="406" 
d="M340 -109h-41v-67h-121v67h-41q-25 0 -42.5 20t-17.5 48v864q0 28 17 47.5t43 19.5h203q26 0 43 -19.5t17 -47.5v-864q0 -28 -17 -48t-43 -20zM280 83v672h-83v-672h83z" />
    <glyph glyph-name="r" unicode="r" horiz-adv-x="408" 
d="M302 -98l-111 602v-602h-122v670v145v112q0 28 17.5 47.5t43.5 19.5h206q26 0 43.5 -19.5t17.5 -47.5v-257q0 -29 -17.5 -48.5t-43.5 -19.5h-20l111 -602h-125zM275 761h-84v-44v-78h84v122z" />
    <glyph glyph-name="s" unicode="s" horiz-adv-x="389" 
d="M327 -105h-204q-25 0 -42.5 19.5t-17.5 47.5v430h120v-362h83v466h-143q-25 0 -42.5 19.5t-17.5 47.5v259q0 29 17.5 48.5t42.5 19.5h204q25 0 42.5 -19.5t17.5 -48.5v-139h-121v72h-83v-124h144q25 0 42.5 -19.5t17.5 -48.5v-601q0 -28 -17.5 -47.5t-42.5 -19.5z" />
    <glyph glyph-name="t" unicode="t" horiz-adv-x="365" 
d="M284 754v-857h-120v857h-99v135h320v-135h-101z" />
    <glyph glyph-name="u" unicode="u" horiz-adv-x="395" 
d="M330 -110h-203q-26 0 -43 19.5t-17 47.5v931h120v-863h83v863h120v-931q0 -28 -17 -47.5t-43 -19.5z" />
    <glyph glyph-name="v" unicode="v" horiz-adv-x="384" 
d="M283 -54q-3 -26 -20 -42t-40 -16t-40.5 16t-20.5 42l-115 942h122l54 -433l53 433h122z" />
    <glyph glyph-name="w" unicode="w" horiz-adv-x="593" 
d="M496 -53q-4 -25 -22 -42t-42 -17q-25 0 -43 16.5t-22 42.5l-46 363l-46 -363q-4 -26 -22 -42.5t-42 -16.5q-25 0 -43 17t-21 42l-113 941h131l48 -404l44 346q3 26 21.5 42.5t42.5 16.5t42.5 -16.5t21.5 -42.5l44 -346l49 404h130z" />
    <glyph glyph-name="x" unicode="x" horiz-adv-x="375" 
d="M268 385l120 -493h-127l-56 233l-57 -233h-126l119 493l-122 503h127l59 -243l59 243h126z" />
    <glyph glyph-name="y" unicode="y" horiz-adv-x="378" 
d="M399 891l-125 -507h1v-68.5t-0.5 -78t-0.5 -81.5v-79v-183h-122v489l-124 508h126l59 -243l59 243h127z" />
    <glyph glyph-name="z" unicode="z" horiz-adv-x="349" 
d="M104 -105q-29 0 -48 27q-18 26 -10 58l183 776h-183v135h261q31 0 48 -27q8 -12 11 -27.5t0 -30.5l-184 -776h186v-135h-264z" />
    <glyph glyph-name="Ccedilla" unicode="&#xc7;" horiz-adv-x="1000" 
 />
    <glyph glyph-name="Egrave" unicode="&#xc8;" horiz-adv-x="1000" 
 />
    <glyph glyph-name="Icircumflex" unicode="&#xce;" horiz-adv-x="1000" 
 />
    <glyph glyph-name="quoteright" unicode="&#x2019;" horiz-adv-x="172" 
d="M41 889h124v-118h-2q0 -25 -17.5 -42.5t-42.5 -17.5t-42.5 17.5t-17.5 42.5h-2v118z" />
    </font>
</defs>
</svg>
